<svg width="60" height="60" viewBox="0 0 60 60" fill="none" xmlns="http://www.w3.org/2000/svg">
<path fill-rule="evenodd" clip-rule="evenodd" d="M60 0H0V60H60V0ZM45.9927 24.6493C45.9693 25.804 45.8767 26.8338 45.7283 27.773C44.8119 33.5242 39.725 35.7115 34.8274 36.2141C36.5163 37.2777 37.0009 38.6123 37.0009 42.22C37.0009 44.4365 36.983 45.4751 36.9716 46.1388C36.9644 46.556 36.9598 46.8251 36.9637 47.1454C36.9755 47.9941 37.7544 48.5663 38.3221 48.9835C38.6659 49.2361 38.9324 49.4319 38.9041 49.5977C38.8293 50.0362 37.2336 49.9652 36.4877 49.7039C34.3748 48.9692 34.5859 47.2087 34.5859 47.2087L34.2679 42.3842C34.2679 42.3842 34.0857 39.7873 33.2037 39.7873V47.6875C33.2037 48.7543 33.7655 49.3599 34.1901 49.8177C34.4481 50.0958 34.6555 50.3193 34.6555 50.5585C34.6555 51.6508 32.5823 50.4556 31.9056 49.7744C30.9864 48.851 31.0291 47.0065 31.0667 45.3871C31.0712 45.1903 31.0757 44.9968 31.0784 44.8087C31.102 43.1328 31.0941 39.4646 31.0941 39.4646L30.4102 39.4794C30.4102 39.4794 30.704 47.4889 30.048 48.9511C29.2001 50.8231 26.6436 51.4692 26.6436 50.6139C26.6436 50.3653 26.7626 50.259 26.9259 50.1131C27.139 49.9228 27.4274 49.6651 27.6251 48.9361C27.9228 47.8411 27.8224 39.6736 27.8224 39.6736C27.8224 39.6736 27.0025 40.1607 27.0025 41.6908C27.0025 41.9948 26.9989 42.9204 26.9948 43.9679C26.9896 45.3334 26.9835 46.9061 26.9835 47.5794C26.9835 49.0768 24.857 49.9281 23.835 49.9281C23.3178 49.9281 22.6743 49.9021 22.6743 49.6272C22.6743 49.3444 22.9998 49.1095 23.3845 48.8321C23.9399 48.4315 24.6186 47.942 24.6186 47.0909C24.6186 45.839 24.5919 42.6292 24.5919 42.6292C24.5919 42.6292 23.6116 42.7946 22.2119 42.7946C18.6863 42.7946 17.5711 40.5456 17.0409 39.286C16.3506 37.6453 15.455 36.8786 14.5041 36.2618C13.9192 35.882 13.785 35.4366 14.4604 35.3102C16.3356 34.9565 17.3722 36.305 18.353 37.5809C19.0047 38.4288 19.6317 39.2445 20.4638 39.5074C21.9514 39.9751 23.8643 39.7719 24.8153 39.157C24.941 37.896 25.8496 36.8076 26.6065 36.2326C21.5769 35.7518 16.4567 32.9641 15.2278 26.5023C15.1417 25.7597 15.0909 24.9879 15.0909 24.1711C15.0909 20.8281 16.113 19.5267 17.4975 17.7637C17.5254 17.7282 17.5535 17.6925 17.5816 17.6566C16.4907 13.7661 17.9737 11.1067 17.9737 11.1067C17.9737 11.1067 20.2677 10.6332 24.6049 13.7388C26.9556 12.7306 33.2239 12.6458 36.1901 13.5141C38.0093 12.3124 41.339 10.6053 42.682 11.082C43.0461 11.6662 43.8291 13.3727 43.1574 17.1243C43.2431 17.2787 43.3963 17.4658 43.5887 17.7008C44.4207 18.7169 45.9854 20.628 45.9927 24.6493Z" fill="#F7F7F7"/>
</svg>
