<svg width="234" height="184" viewBox="0 0 234 184" fill="none" xmlns="http://www.w3.org/2000/svg">
<rect x="82" y="57" width="70" height="70" fill="#1A1A1A" stroke="#F7F7F7" stroke-width="3"/>
<path d="M61.3406 62L92 92L61.3406 122L1.99999 122L32.6593 92L2 62L61.3406 62Z" fill="#1A1A1A"/>
<path d="M61.3406 122L61.3406 182L1.99999 182L1.99999 122L61.3406 122Z" fill="#1A1A1A"/>
<path d="M61.3407 1.99999L61.3406 62L2 62L2 1.99999L61.3407 1.99999Z" fill="#1A1A1A"/>
<path d="M232 62L232 2L172 2L172 62L232 62Z" fill="#1A1A1A"/>
<path d="M232 182L232 122L172 122L172 182L232 182Z" fill="#1A1A1A"/>
<path d="M232 62L202 62L172 62L142 92L202 92L232 62Z" fill="#1A1A1A"/>
<path d="M172 122L232 122L202 92L142 92L172 122Z" fill="#1A1A1A"/>
<path d="M172 62L172 2L116.67 92L172 182L172 122L142 92L172 62Z" fill="#1A1A1A"/>
<path d="M61.3406 62L92 92L61.3406 122L61.3406 182L116.67 92L61.3407 1.99999L61.3406 62Z" fill="#1A1A1A"/>
<path d="M61.3406 62L92 92M61.3406 62L2 62M61.3406 62L61.3407 1.99999M92 92L61.3406 122M92 92L32.6593 92M61.3406 122L1.99999 122M61.3406 122L61.3406 182M2 62L32.6593 92M2 62L2 1.99999L61.3407 1.99999M32.6593 92L1.99999 122M1.99999 122L1.99999 182L61.3406 182M61.3406 182L116.67 92M61.3407 1.99999L116.67 92M232 122L172 122M232 122L232 182L172 182M232 122L202 92M232 62L172 62M232 62L232 2L172 2M232 62L202 92M232 62L202 62L172 62M172 122L172 182M172 122L142 92M202 92L142 92M172 62L172 2M172 62L142 92M172 2L116.67 92M172 182L116.67 92" stroke="#F7F7F7" stroke-width="3"/>
</svg>
